<svg xmlns="http://www.w3.org/2000/svg" viewBox="0 0 86.04 340.66"><defs><style>.cls-1{fill:#f7f8f8;}.cls-2{fill:none;stroke:#fff;stroke-miterlimit:10;}.cls-3{fill:#fff;}</style></defs><g id="圖層_2" data-name="圖層 2"><g id="Capa_1" data-name="Capa 1"><path class="cls-1" d="M27.14,241.59l31.57-.05a2.56,2.56,0,0,0,0-5.08l-31.57,0a2.56,2.56,0,0,0,0,5.08Z"/><path class="cls-1" d="M27.13,234.49l31.57-.05a2.57,2.57,0,0,0,0-5.1H55.32l-3.41-6.75s-1.64-2.17-2.49-2.4-10.56-1.29-13.57,0a4.94,4.94,0,0,0-2.61,2.59c-.88,1.66-2.74,5.06-3.58,6.59H27.13a2.57,2.57,0,0,0,0,5.1Z"/><path class="cls-1" d="M27.16,248.7l31.56,0a2.56,2.56,0,0,0,0-5.09l-31.57.05a2.56,2.56,0,0,0,0,5.09Z"/><path class="cls-2" d="M32.17,293.46c-.32.63-.38,1.11-.17,1.44s.4.48.61.48c.46,0,1.11-.64,1.41-1.23a4.61,4.61,0,0,0,.24-2.91A6.34,6.34,0,0,0,32.17,293.46Z"/><path class="cls-2" d="M45.73,294.7a2.12,2.12,0,0,0,0,1.67c0,.08.09.11.21.12a1.67,1.67,0,0,0,.49-.13A2.73,2.73,0,0,0,47.77,295,4.1,4.1,0,0,0,48,291.6l-.24.28A14.14,14.14,0,0,0,45.73,294.7Z"/><path class="cls-2" d="M55.78,281a197.38,197.38,0,0,1-11.32-30.6H39.67a199.25,199.25,0,0,1-10.45,29,13.53,13.53,0,0,1,7,7.57,14.05,14.05,0,0,1,6.74-.95,13,13,0,0,1,5,1.37A26.3,26.3,0,0,1,55.78,281Z"/><path class="cls-2" d="M63,286.6a.72.72,0,0,0,.21,0c.39,0,.86-.15.94-.48a2,2,0,0,0-.48-1.68,4.72,4.72,0,0,0-3.36-1.69H60l.78,1.53C61.3,285.36,62,286.46,63,286.6Z"/><path class="cls-2" d="M22.25,285.73h0c.1,0,.42-.14,1.16-1.31l.06-.1c.46-.89.92-1.8,1.4-2.78a4,4,0,0,0-2.44,1,2.39,2.39,0,0,0-.61,1.89C21.89,285.34,22.12,285.67,22.25,285.73Z"/><path class="cls-2" d="M43.08,340.16c23.48,0,42.5-18.66,42.46-41.59A41.48,41.48,0,0,0,60.78,260.9l0-8.07a2.49,2.49,0,0,0-2.52-2.45l-10.66,0a191.16,191.16,0,0,0,11.06,29.65,7.18,7.18,0,0,1,6.27,1.64,6.07,6.07,0,0,1,2.23,4.63,3.28,3.28,0,0,1-1.66,2.57,4.26,4.26,0,0,1-2.24.67c-2.35,0-4.22-2.08-5.11-3.85-.34-.66-.68-1.32-1-2a21.36,21.36,0,0,0-7,5.54,5.82,5.82,0,0,1,1.1,2.75,8.38,8.38,0,0,1-2,5.94,3.85,3.85,0,0,1-6.78-1.73c-.3-2.26,1.71-4.66,3.17-6.41l.2-.24a7.36,7.36,0,0,0-1.35-.41,12,12,0,0,0-6.52.2c-.31.11-.62.24-.93.37a14.72,14.72,0,0,1,.28,1.81A6.16,6.16,0,0,1,35,297.46a4.1,4.1,0,0,1-2.51.88,3,3,0,0,1-2.21-.88A4.2,4.2,0,0,1,29,294.05c.24-2.5,2.59-4.41,3.59-5.11q.43-.31.9-.6c-.77-2.09-2.39-5.2-5.44-6.36-.62,1.28-1.26,2.55-1.89,3.78-.05.08-.1.17-.16.25-.56.82-2,2.68-3.8,2.68a2.75,2.75,0,0,1-1.82-.72c-1.71-1.47-1.78-4-1.09-5.79.86-2.27,3.14-3.63,6.11-3.63.31,0,.63,0,.94,0a194.12,194.12,0,0,0,10.26-28.17h-8.9a2.48,2.48,0,0,0-2.51,2.46V261A41.47,41.47,0,0,0,.5,298.69C.54,321.62,19.6,340.19,43.08,340.16Z"/><rect class="cls-3" x="41.49" width="2.03" height="220.2"/></g></g></svg>