<svg xmlns="http://www.w3.org/2000/svg" viewBox="0 0 85.04 340.16"><defs><style>.cls-1{fill:#f7f8f8;}.cls-2{fill:#f8bf38;}.cls-3{fill:#fff;}</style></defs><g id="圖層_2" data-name="圖層 2"><g id="Capa_1" data-name="Capa 1"><path class="cls-1" d="M26.64,242.5l31.57-.05a2.53,2.53,0,0,0,0-5l-31.57.05a2.53,2.53,0,0,0,0,5Z"/><path class="cls-1" d="M26.63,235.46l31.57-.05a2.54,2.54,0,0,0,0-5H54.82l-3.41-6.69s-1.64-2.15-2.49-2.38-10.56-1.27-13.57,0a4.89,4.89,0,0,0-2.61,2.56c-.88,1.64-2.74,5-3.58,6.52H26.63a2.54,2.54,0,0,0,0,5.05Z"/><path class="cls-1" d="M26.66,249.54l31.56,0a2.53,2.53,0,0,0,0-5l-31.57,0a2.54,2.54,0,0,0,0,5Z"/><path class="cls-2" d="M31.67,293.89c-.32.63-.38,1.1-.17,1.42s.4.48.61.48c.46,0,1.11-.63,1.41-1.22a4.52,4.52,0,0,0,.24-2.88A6.22,6.22,0,0,0,31.67,293.89Z"/><path class="cls-2" d="M45.23,295.11a2.12,2.12,0,0,0,0,1.67c0,.07.09.1.22.11a1.57,1.57,0,0,0,.48-.12,2.77,2.77,0,0,0,1.39-1.41,4,4,0,0,0,.21-3.31l-.24.28A13.9,13.9,0,0,0,45.23,295.11Z"/><path class="cls-2" d="M55.28,281.54A194.54,194.54,0,0,1,44,251.23H39.17a196.13,196.13,0,0,1-10.45,28.68,13.46,13.46,0,0,1,7,7.5,14.17,14.17,0,0,1,6.74-.94,13,13,0,0,1,5,1.35A26.44,26.44,0,0,1,55.28,281.54Z"/><path class="cls-2" d="M62.45,287.1h.21c.39,0,.86-.16.94-.49a1.9,1.9,0,0,0-.48-1.65,4.71,4.71,0,0,0-3.36-1.68,1.29,1.29,0,0,0-.28,0l.78,1.51C60.8,285.86,61.46,287,62.45,287.1Z"/><path class="cls-2" d="M21.75,286.23h0c.1,0,.43-.13,1.16-1.3l.06-.09c.46-.89.92-1.79,1.4-2.76a4,4,0,0,0-2.44,1,2.36,2.36,0,0,0-.61,1.87C21.39,285.84,21.63,286.17,21.75,286.23Z"/><path class="cls-2" d="M42.58,340.16c23.49,0,42.5-18.49,42.46-41.21,0-16.56-10.17-30.82-24.76-37.32l0-8a2.47,2.47,0,0,0-2.52-2.43H47.08a188.72,188.72,0,0,0,11.06,29.39,7.19,7.19,0,0,1,6.27,1.62,6,6,0,0,1,2.24,4.59A3.26,3.26,0,0,1,65,289.36a4.25,4.25,0,0,1-2.24.66c-2.35,0-4.22-2-5.11-3.81-.34-.65-.68-1.31-1-2a21.4,21.4,0,0,0-7,5.48,5.79,5.79,0,0,1,1.1,2.73,8.25,8.25,0,0,1-2,5.89,3.67,3.67,0,0,1-5.14.76,3.6,3.6,0,0,1-1.64-2.47c-.3-2.25,1.71-4.62,3.17-6.36.07-.08.14-.15.2-.23a6.08,6.08,0,0,0-1.35-.41,12.18,12.18,0,0,0-6.52.19l-.92.37c.12.61.22,1.21.28,1.8a6.1,6.1,0,0,1-2.3,5.86,4.15,4.15,0,0,1-2.51.87,3.07,3.07,0,0,1-2.21-.86,4.16,4.16,0,0,1-1.32-3.38c.24-2.48,2.59-4.37,3.59-5.07.29-.2.59-.4.9-.59-.77-2.07-2.39-5.15-5.44-6.31-.62,1.27-1.26,2.53-1.89,3.75a2,2,0,0,1-.16.24c-.56.82-2,2.66-3.79,2.67a2.76,2.76,0,0,1-1.83-.72c-1.71-1.45-1.78-3.93-1.09-5.73.86-2.25,3.14-3.6,6.11-3.6.31,0,.63,0,.94,0a191.28,191.28,0,0,0,10.26-27.92h-8.9a2.48,2.48,0,0,0-2.51,2.44v8C10.08,268.22,0,282.51,0,299.07,0,321.8,19.1,340.19,42.58,340.16Z"/><rect class="cls-3" x="41.55" width="2.02" height="222.97"/></g></g></svg>