<svg xmlns="http://www.w3.org/2000/svg" viewBox="0 0 84.38 342.02"><defs><style>.cls-1{fill:#f7f8f8;}.cls-2{fill:none;stroke:#fff;stroke-miterlimit:10;}.cls-3{fill:#fff;}</style></defs><g id="圖層_2" data-name="圖層 2"><g id="Capa_1" data-name="Capa 1"><path class="cls-1" d="M26.62,242.55l31,0a2.58,2.58,0,0,0,0-5.11l-30.95,0a2.57,2.57,0,0,0,0,5.1Z"/><path class="cls-1" d="M26.61,235.42l31,0a2.58,2.58,0,0,0,0-5.12h-3.3l-3.35-6.78s-1.61-2.18-2.44-2.42-10.35-1.28-13.3,0a4.88,4.88,0,0,0-2.56,2.6c-.87,1.66-2.69,5.08-3.51,6.61H26.61a2.58,2.58,0,0,0,0,5.11Z"/><path class="cls-1" d="M26.63,249.69l31-.05a2.58,2.58,0,0,0,0-5.11l-30.95.05a2.58,2.58,0,0,0,0,5.11Z"/><path class="cls-2" d="M31.55,294.63c-.31.64-.37,1.12-.17,1.44s.4.49.6.49c.46,0,1.09-.64,1.39-1.24a4.78,4.78,0,0,0,.23-2.92A6.3,6.3,0,0,0,31.55,294.63Z"/><path class="cls-2" d="M44.85,295.87a2.21,2.21,0,0,0-.06,1.69.22.22,0,0,0,.22.11,1.23,1.23,0,0,0,.47-.12,2.74,2.74,0,0,0,1.36-1.42,4.17,4.17,0,0,0,.21-3.36l-.24.28A14.28,14.28,0,0,0,44.85,295.87Z"/><path class="cls-2" d="M54.7,282.12A201.34,201.34,0,0,1,43.6,251.4H38.91a203.47,203.47,0,0,1-10.25,29.06,13.49,13.49,0,0,1,6.82,7.61,13.67,13.67,0,0,1,6.61-1A12.6,12.6,0,0,1,47,288.5,25.8,25.8,0,0,1,54.7,282.12Z"/><path class="cls-2" d="M61.73,287.75h.2c.39,0,.84-.16.93-.49a2,2,0,0,0-.47-1.68,4.62,4.62,0,0,0-3.3-1.7h-.27c.25.52.51,1,.77,1.53C60.11,286.5,60.76,287.6,61.73,287.75Z"/><path class="cls-2" d="M21.82,286.87h0c.1,0,.41-.13,1.14-1.32l.05-.09c.46-.9.91-1.81,1.37-2.79a3.78,3.78,0,0,0-2.39,1,2.39,2.39,0,0,0-.59,1.9C21.47,286.48,21.7,286.81,21.82,286.87Z"/><path class="cls-2" d="M42.25,341.52A41.7,41.7,0,0,0,59.6,261.94l0-8.1a2.46,2.46,0,0,0-2.47-2.46l-10.45,0A196.21,196.21,0,0,0,57.5,281.17a6.91,6.91,0,0,1,6.15,1.65,6.12,6.12,0,0,1,2.19,4.64A3.3,3.3,0,0,1,64.21,290a4,4,0,0,1-2.2.67c-2.3,0-4.14-2.08-5-3.86l-1-2a21.23,21.23,0,0,0-6.84,5.56,6.09,6.09,0,0,1,1.08,2.76,8.55,8.55,0,0,1-2,6c-1.47,1.69-3.35,2-5,.77a3.62,3.62,0,0,1-1.61-2.5c-.3-2.28,1.68-4.69,3.11-6.45a2.11,2.11,0,0,0,.19-.23,5.82,5.82,0,0,0-1.32-.41,11.53,11.53,0,0,0-6.39.19c-.31.12-.61.24-.91.38.12.61.22,1.22.28,1.81a6.26,6.26,0,0,1-2.26,5.94,3.89,3.89,0,0,1-2.46.89,2.89,2.89,0,0,1-2.16-.88,4.24,4.24,0,0,1-1.29-3.42c.23-2.51,2.53-4.43,3.51-5.14.29-.2.58-.41.89-.6-.76-2.1-2.35-5.21-5.34-6.39-.61,1.29-1.23,2.56-1.85,3.8a2.13,2.13,0,0,1-.16.25c-.55.83-2,2.69-3.72,2.69a2.68,2.68,0,0,1-1.79-.72c-1.67-1.47-1.74-4-1.07-5.81.85-2.28,3.09-3.64,6-3.65.3,0,.61,0,.92,0a198.43,198.43,0,0,0,10.05-28.28H27.12a2.47,2.47,0,0,0-2.47,2.47V262a41.69,41.69,0,0,0,17.59,79.52Z"/><rect class="cls-3" x="40.68" width="2" height="221.07"/></g></g></svg>