<svg xmlns="http://www.w3.org/2000/svg" viewBox="0 0 127.84 277.62"><defs><style>.cls-1{fill:#f7f8f8;}.cls-2{fill:#ed9e00;}.cls-3{fill:#f8bf38;}.cls-4{fill:#fff;}</style></defs><g id="圖層_2" data-name="圖層 2"><g id="Capa_1" data-name="Capa 1"><path class="cls-1" d="M48.34,155.86l31,0a2.58,2.58,0,0,0,0-5.11l-30.95,0a2.57,2.57,0,0,0,0,5.1Z"/><path class="cls-1" d="M48.33,148.73l31,0a2.58,2.58,0,0,0,0-5.11H76l-3.34-6.78s-1.61-2.18-2.45-2.42-10.35-1.28-13.3,0a4.85,4.85,0,0,0-2.55,2.6c-.87,1.66-2.7,5.08-3.51,6.61H48.32a2.58,2.58,0,0,0,0,5.11Z"/><path class="cls-1" d="M48.35,163,79.3,163a2.58,2.58,0,0,0,0-5.11l-30.95,0a2.58,2.58,0,0,0,0,5.11Z"/><path class="cls-2" d="M6.57,187.51l7.82,3.89a3.3,3.3,0,0,0,4.47-1.2.08.08,0,0,0,0,0,3.31,3.31,0,0,0-1.2-4.47l-7.83-3.9A3.29,3.29,0,0,0,5.39,183,3.23,3.23,0,0,0,5,184.87,3,3,0,0,0,6.57,187.51Z"/><path class="cls-2" d="M108.91,190.15a3.3,3.3,0,0,0,4.48,1.16l7.81-3.92a3,3,0,0,0,1.57-2.63,3.32,3.32,0,0,0-.43-1.89,3.27,3.27,0,0,0-4.48-1.16L110,185.62a3.33,3.33,0,0,0-1.16,4.49Z"/><path class="cls-2" d="M4.07,228.77l8.55-1.8a2.85,2.85,0,0,0,1.83-1.28,2.82,2.82,0,0,0,.43-1,3.54,3.54,0,0,0,0-1.74s0-.07,0-.11a2.8,2.8,0,0,0-2.76-2.36,3.34,3.34,0,0,0-1.25,0l-8.53,1.91C-1.76,223.38,0,229.63,4.07,228.77Z"/><path class="cls-2" d="M112.89,223.29a2.85,2.85,0,0,0,2.3,3.52l8.53,1.91a3.31,3.31,0,0,0,4-2.3.43.43,0,0,0,0-.11,3.3,3.3,0,0,0-2.3-4l-8.55-1.79A3.3,3.3,0,0,0,112.89,223.29Z"/><path class="cls-2" d="M22.69,263l.06.06c1.28,1,3.44,1.47,4.63,0l5.44-6.84a3.34,3.34,0,0,0,0-4.63,1.64,1.64,0,0,0-.24-.21,3.26,3.26,0,0,0-4.4.23l-5.49,6.8C21.63,259.62,21.2,261.78,22.69,263Z"/><path class="cls-2" d="M95.08,256.12l5.45,6.84c1.19,1.51,3.37,1,4.63,0l.06-.05c1.5-1.21,1-3.38,0-4.63l-5.51-6.79a2.77,2.77,0,0,0-2.51-.92,3.48,3.48,0,0,0-2.12,1,3,3,0,0,0-.89,1.82A3.83,3.83,0,0,0,95.08,256.12Z"/><path class="cls-2" d="M63.91,277.62H64a3.3,3.3,0,0,0,3.29-3.25c0-2.91,0-5.83,0-8.74a3.32,3.32,0,0,0-3.26-3.3h0a3.07,3.07,0,0,0-2.18.81,3,3,0,0,0-1.11,2.44c0,2.91,0,5.83,0,8.74A3.31,3.31,0,0,0,63.91,277.62Z"/><path class="cls-3" d="M53.27,207.94a1.54,1.54,0,0,0-.18,1.44c.2.32.4.49.6.49.46,0,1.09-.64,1.39-1.24a4.71,4.71,0,0,0,.23-2.92A6.35,6.35,0,0,0,53.27,207.94Z"/><path class="cls-3" d="M66.56,209.18a2.26,2.26,0,0,0,0,1.69.21.21,0,0,0,.21.11,1.27,1.27,0,0,0,.48-.12,2.74,2.74,0,0,0,1.36-1.42,4.16,4.16,0,0,0,.2-3.36,3.11,3.11,0,0,0-.23.28A13.92,13.92,0,0,0,66.56,209.18Z"/><path class="cls-3" d="M76.42,195.43a200.25,200.25,0,0,1-11.11-30.72H60.62a203.5,203.5,0,0,1-10.24,29.06,13.53,13.53,0,0,1,6.82,7.61,13.5,13.5,0,0,1,6.6-1,12.55,12.55,0,0,1,4.87,1.38A25.74,25.74,0,0,1,76.42,195.43Z"/><path class="cls-3" d="M83.44,201.06h.21c.38,0,.84-.16.92-.49a2,2,0,0,0-.47-1.68,4.59,4.59,0,0,0-3.3-1.7h-.26c.24.51.5,1,.76,1.53C81.82,199.81,82.48,200.91,83.44,201.06Z"/><path class="cls-3" d="M43.54,200.18h0c.1,0,.42-.14,1.14-1.32l.06-.09c.45-.9.9-1.82,1.37-2.79a3.76,3.76,0,0,0-2.39,1,2.43,2.43,0,0,0-.6,1.9C43.19,199.79,43.42,200.12,43.54,200.18Z"/><path class="cls-3" d="M64,254.83a41.7,41.7,0,0,0,17.35-79.58v-8.1a2.47,2.47,0,0,0-2.47-2.46l-10.45,0a194.08,194.08,0,0,0,10.84,29.77,6.93,6.93,0,0,1,6.15,1.65,6.17,6.17,0,0,1,2.19,4.64,3.31,3.31,0,0,1-1.64,2.58,4,4,0,0,1-2.19.67c-2.31,0-4.14-2.08-5-3.86-.34-.66-.67-1.33-1-2a21,21,0,0,0-6.83,5.56A6.08,6.08,0,0,1,72,206.48a8.59,8.59,0,0,1-2,6c-1.47,1.69-3.36,2-5,.77a3.66,3.66,0,0,1-1.6-2.51c-.3-2.27,1.67-4.68,3.1-6.44a2.2,2.2,0,0,0,.2-.23,6.16,6.16,0,0,0-1.32-.41,11.56,11.56,0,0,0-6.4.19c-.3.12-.61.24-.9.38.12.61.21,1.22.27,1.81A6.25,6.25,0,0,1,56,212a3.93,3.93,0,0,1-2.46.89,2.89,2.89,0,0,1-2.16-.88,4.26,4.26,0,0,1-1.3-3.42c.23-2.51,2.53-4.43,3.51-5.14.29-.2.59-.41.89-.6-.75-2.1-2.34-5.22-5.33-6.39-.61,1.29-1.24,2.56-1.86,3.8a1.75,1.75,0,0,1-.16.25c-.54.83-2,2.69-3.71,2.69a2.64,2.64,0,0,1-1.79-.72c-1.68-1.47-1.75-4-1.07-5.81.84-2.28,3.08-3.64,6-3.65.31,0,.61,0,.92,0a198.1,198.1,0,0,0,10.06-28.29l-8.73,0a2.47,2.47,0,0,0-2.46,2.47v8.1A41.69,41.69,0,0,0,64,254.83Z"/><rect class="cls-4" x="62.95" width="2" height="136.07"/></g></g></svg>