<svg xmlns="http://www.w3.org/2000/svg" viewBox="0 0 127.84 96.35"><defs><style>.cls-1{fill:#ed9e00;}</style></defs><g id="圖層_2" data-name="圖層 2"><g id="Capa_1" data-name="Capa 1"><path class="cls-1" d="M6.57,6.24l7.82,3.89a3.31,3.31,0,0,0,4.47-1.2s0,0,0,0a3.3,3.3,0,0,0-1.2-4.46L9.85.52a3.27,3.27,0,0,0-4.46,1.2A3.23,3.23,0,0,0,5,3.6,3,3,0,0,0,6.57,6.24Z"/><path class="cls-1" d="M108.91,8.88A3.3,3.3,0,0,0,113.39,10l7.81-3.92a3,3,0,0,0,1.57-2.63,3.37,3.37,0,0,0-.43-1.9A3.28,3.28,0,0,0,117.86.44L110,4.35a3.33,3.33,0,0,0-1.16,4.49Z"/><path class="cls-1" d="M4.07,47.5l8.55-1.8a2.85,2.85,0,0,0,1.83-1.28,2.82,2.82,0,0,0,.43-1,3.54,3.54,0,0,0,0-1.74s0-.08,0-.11a2.82,2.82,0,0,0-2.76-2.37,3.57,3.57,0,0,0-1.25.06L2.37,41.18C-1.76,42.11,0,48.36,4.07,47.5Z"/><path class="cls-1" d="M112.89,42a2.85,2.85,0,0,0,2.3,3.52l8.53,1.91a3.31,3.31,0,0,0,4-2.3.52.52,0,0,0,0-.11,3.3,3.3,0,0,0-2.3-4l-8.55-1.8A3.32,3.32,0,0,0,112.89,42Z"/><path class="cls-1" d="M22.69,81.7l.06.06c1.28,1,3.44,1.47,4.63,0l5.44-6.84a3.34,3.34,0,0,0,0-4.63,1.21,1.21,0,0,0-.24-.21,3.26,3.26,0,0,0-4.4.23l-5.49,6.8C21.63,78.35,21.2,80.51,22.69,81.7Z"/><path class="cls-1" d="M95.08,74.85l5.45,6.84c1.19,1.51,3.37,1,4.63,0l.06,0c1.5-1.21,1-3.38,0-4.63q-2.75-3.41-5.51-6.79a2.77,2.77,0,0,0-2.51-.92,3.52,3.52,0,0,0-2.12,1,3.07,3.07,0,0,0-.89,1.83A3.83,3.83,0,0,0,95.08,74.85Z"/><path class="cls-1" d="M63.91,96.35H64a3.3,3.3,0,0,0,3.29-3.25c0-2.91,0-5.83,0-8.74A3.32,3.32,0,0,0,64,81.05s0,0,0,0a3.07,3.07,0,0,0-2.18.82,3,3,0,0,0-1.11,2.44c0,2.91,0,5.83,0,8.74A3.31,3.31,0,0,0,63.91,96.35Z"/></g></g></svg>